<?xml version="1.0" standalone="no"?>
<!DOCTYPE svg PUBLIC "-//W3C//DTD SVG 20010904//EN"
 "http://www.w3.org/TR/2001/REC-SVG-20010904/DTD/svg10.dtd">
<svg version="1.0" xmlns="http://www.w3.org/2000/svg"
 width="512.000000pt" height="512.000000pt" viewBox="0 0 512.000000 512.000000"
 preserveAspectRatio="xMidYMid meet">

<g transform="translate(0.000000,512.000000) scale(0.100000,-0.100000)"
fill="#000000" stroke="none">
<path d="M317 4949 c-119 -17 -231 -103 -286 -219 l-26 -55 -3 -1597 -2 -1598
21 -62 c39 -117 120 -199 235 -239 51 -18 93 -19 829 -19 l775 0 0 -195 c0
-195 0 -196 25 -220 13 -14 31 -25 40 -25 12 0 15 -14 15 -70 0 -53 -3 -70
-14 -70 -8 0 -24 -9 -37 -19 -22 -18 -24 -29 -29 -133 l-5 -113 -188 -5 c-172
-5 -190 -7 -203 -24 -30 -42 -12 -98 37 -115 45 -16 2073 -16 2118 0 49 17 67
73 37 115 -13 17 -31 19 -203 24 l-188 5 -3 422 -2 423 383 0 384 0 21 23 c31
33 29 80 -4 106 l-27 21 -1846 0 c-1769 0 -1848 1 -1886 19 -45 21 -89 61
-113 106 -14 25 -18 69 -20 258 l-3 227 2410 0 2411 0 0 -207 c0 -116 -5 -225
-11 -246 -13 -49 -73 -115 -124 -138 -35 -16 -70 -19 -297 -19 -169 0 -266 -4
-282 -11 -51 -23 -55 -103 -7 -128 12 -7 119 -11 291 -11 242 0 276 2 325 19
113 40 196 124 234 239 21 62 21 63 19 1655 l-3 1592 -22 55 c-49 120 -166
210 -299 230 -44 6 -767 10 -1987 10 -2087 0 -1978 3 -1993 -54 -6 -25 -9 -26
-73 -26 -63 1 -67 2 -86 32 -11 18 -31 35 -45 39 -35 10 -223 8 -293 -2z
m4246 -426 l127 -6 0 -1219 0 -1218 -2130 0 -2130 0 0 1225 0 1225 2003 0
c1101 0 2059 -3 2130 -7z"/>
<path d="M702 4294 c-30 -21 -31 -83 -1 -110 20 -18 40 -19 314 -19 274 0 294
1 314 19 27 25 28 79 1 106 -19 19 -33 20 -313 20 -249 0 -296 -2 -315 -16z"/>
<path d="M3790 4290 c-27 -27 -26 -81 1 -106 20 -18 40 -19 314 -19 274 0 294
1 314 19 27 25 28 79 1 106 -19 19 -33 20 -315 20 -282 0 -296 -1 -315 -20z"/>
<path d="M2496 4205 c-87 -66 -571 -467 -588 -487 -10 -11 -18 -32 -18 -47 0
-14 54 -144 121 -289 l121 -264 -26 -27 -26 -27 0 -377 c0 -364 1 -378 20
-397 19 -19 33 -20 460 -20 427 0 441 1 460 20 19 19 20 33 20 397 l0 377 -26
27 -26 27 121 264 c67 145 121 275 121 290 0 15 -10 38 -22 51 -29 32 -589
492 -616 506 -32 17 -47 13 -96 -24z m-16 -389 l0 -174 -34 -20 c-86 -51 -122
-180 -74 -271 46 -90 145 -137 236 -113 61 17 111 57 140 113 48 91 12 220
-74 271 l-34 20 0 174 c0 96 3 174 6 174 8 0 408 -331 412 -341 2 -5 -51 -128
-119 -274 l-122 -265 -257 0 -258 0 -122 265 c-67 145 -120 269 -118 273 4 12
400 341 411 341 4 1 7 -77 7 -173z m410 -1126 l0 -270 -330 0 -330 0 0 270 0
270 330 0 330 0 0 -270z"/>
<path d="M700 4000 c-30 -30 -27 -83 6 -109 26 -20 39 -21 309 -21 270 0 283
1 309 21 33 26 36 79 6 109 -19 19 -33 20 -315 20 -282 0 -296 -1 -315 -20z"/>
<path d="M3790 4000 c-30 -30 -27 -83 6 -109 26 -20 39 -21 309 -21 270 0 283
1 309 21 33 26 36 79 6 109 -19 19 -33 20 -315 20 -282 0 -296 -1 -315 -20z"/>
<path d="M700 3710 c-30 -30 -27 -83 6 -109 26 -20 39 -21 309 -21 270 0 283
1 309 21 33 26 36 79 6 109 -19 19 -33 20 -315 20 -282 0 -296 -1 -315 -20z"/>
<path d="M3790 3710 c-30 -30 -27 -83 6 -109 26 -20 39 -21 309 -21 270 0 283
1 309 21 33 26 36 79 6 109 -19 19 -33 20 -315 20 -282 0 -296 -1 -315 -20z"/>
<path d="M700 3420 c-30 -30 -27 -83 6 -109 26 -20 39 -21 309 -21 270 0 283
1 309 21 33 26 36 79 6 109 -19 19 -33 20 -315 20 -282 0 -296 -1 -315 -20z"/>
<path d="M3790 3420 c-30 -30 -27 -83 6 -109 26 -20 39 -21 309 -21 270 0 283
1 309 21 33 26 36 79 6 109 -19 19 -33 20 -315 20 -282 0 -296 -1 -315 -20z"/>
<path d="M2462 1670 c-32 -30 -30 -82 4 -109 21 -17 41 -21 94 -21 84 0 120
23 120 75 0 57 -29 75 -120 75 -63 0 -80 -4 -98 -20z"/>
</g>
</svg>
