<?xml version="1.0" standalone="no"?>
<!DOCTYPE svg PUBLIC "-//W3C//DTD SVG 20010904//EN"
 "http://www.w3.org/TR/2001/REC-SVG-20010904/DTD/svg10.dtd">
<svg version="1.0" xmlns="http://www.w3.org/2000/svg"
 width="512.000000pt" height="512.000000pt" viewBox="0 0 512.000000 512.000000"
 preserveAspectRatio="xMidYMid meet">

<g transform="translate(0.000000,512.000000) scale(0.100000,-0.100000)"
fill="#000000" stroke="none">
<path d="M1270 5063 c-119 -20 -230 -80 -326 -177 l-81 -82 -53 25 c-100 45
-223 44 -327 -4 -46 -21 -92 -60 -226 -193 -92 -92 -181 -187 -197 -212 -100
-158 -72 -347 75 -499 l65 -68 -15 -36 c-29 -71 -14 -179 36 -249 30 -42 101
-85 163 -99 43 -9 63 -8 116 5 l64 17 103 -103 103 -103 0 -825 c0 -457 5
-857 10 -898 24 -182 137 -352 293 -441 93 -52 170 -73 305 -79 67 -2 122 -8
122 -11 0 -3 -14 -76 -31 -161 -25 -125 -30 -171 -26 -235 23 -346 310 -602
652 -582 181 11 348 100 452 240 55 74 68 103 168 365 l77 202 173 0 c159 0
174 2 199 21 14 11 26 29 26 40 0 17 8 19 75 19 57 0 75 -3 75 -14 0 -8 9 -24
19 -37 19 -23 25 -24 207 -29 l187 -5 87 -227 c97 -254 130 -315 211 -396 306
-304 814 -212 993 180 73 159 73 236 4 591 -42 217 -50 271 -40 285 22 31 64
116 86 172 l21 55 3 1507 c3 1633 4 1574 -51 1698 -55 123 -174 243 -296 297
-124 55 -40 53 -1826 51 -907 0 -1661 -3 -1675 -5z m3365 -158 c164 -43 294
-180 325 -345 11 -58 15 -2914 4 -2994 -4 -25 -10 -46 -13 -46 -4 0 -21 75
-40 167 -18 91 -45 196 -59 232 l-27 66 -5 1155 -5 1155 -23 68 c-30 90 -114
211 -185 268 -79 64 -142 96 -233 119 -75 19 -115 20 -1428 20 -1493 0 -1413
3 -1544 -65 -37 -19 -75 -41 -84 -47 -14 -10 -25 -8 -61 9 -67 32 -125 38
-192 18 -50 -14 -60 -14 -72 -2 -12 12 -8 21 27 66 63 80 153 138 250 161 19
4 771 8 1670 9 1440 1 1643 -1 1695 -14z m-3912 -206 c24 -6 62 -33 103 -72
l65 -62 -220 -220 -221 -220 -56 55 c-66 65 -103 132 -111 202 l-6 50 119 120
c67 68 136 128 159 139 45 21 111 24 168 8z m3610 -94 c32 -8 76 -24 99 -36
58 -30 150 -119 181 -177 59 -108 57 -74 57 -1186 l0 -1019 -22 20 c-49 44
-153 103 -231 130 l-82 28 -1065 0 -1065 0 -76 -27 c-114 -40 -195 -92 -284
-182 -129 -129 -168 -225 -231 -559 l-18 -99 -30 6 c-63 13 -157 66 -209 118
-69 69 -114 161 -127 258 -10 80 -14 940 -4 940 3 0 24 -15 47 -33 112 -90
162 -106 510 -161 299 -48 321 -49 389 -9 49 29 96 95 104 150 5 34 -5 119
-35 312 -66 418 -64 413 -334 688 -110 111 -210 204 -223 207 -28 7 -79 -16
-88 -39 -16 -42 -3 -62 130 -196 l136 -137 -25 -34 c-14 -18 -31 -46 -37 -63
l-11 -29 -307 307 -307 307 50 50 49 50 76 -75 c62 -62 81 -75 107 -75 22 0
38 8 52 26 36 46 28 69 -58 158 l-79 81 15 40 c10 27 13 63 10 111 l-5 71 51
31 c106 64 31 61 1497 61 1155 1 1344 -1 1393 -14z m-3132 -78 c27 -17 49 -63
49 -103 0 -37 -13 -51 -377 -416 -404 -405 -412 -411 -478 -384 -52 22 -78 63
-72 115 5 42 17 56 373 413 203 204 383 376 399 384 31 14 76 10 106 -9z m177
-850 l303 -303 -34 -16 c-51 -25 -106 -76 -129 -122 -11 -23 -22 -43 -25 -46
-2 -2 -141 133 -308 300 l-305 305 92 92 c51 51 95 93 98 93 3 0 141 -136 308
-303z m2 -599 c0 -4 -9 -9 -19 -13 -11 -3 -36 -17 -57 -31 l-37 -26 -293 293
-294 294 47 47 48 48 302 -302 c167 -167 303 -306 303 -310z m649 307 c10 -27
26 -99 36 -159 l17 -109 -166 -166 -166 -166 -117 17 c-91 14 -133 25 -183 50
-36 18 -65 38 -64 43 0 6 17 18 37 28 44 22 80 17 132 -19 44 -29 88 -31 115
-4 26 26 26 81 0 105 -11 10 -25 35 -32 56 -9 32 -8 46 6 83 33 87 125 112
207 56 54 -36 82 -38 114 -5 33 32 31 60 -5 115 -34 52 -38 95 -13 147 l17 36
23 -29 c13 -16 32 -51 42 -79z m-957 -974 l3 -576 28 -80 c63 -189 215 -337
400 -390 64 -18 63 -17 44 -110 l-13 -60 -93 -3 c-51 -1 -118 2 -149 8 -137
25 -262 120 -324 247 l-33 68 -3 805 -2 805 69 -69 70 -69 3 -576z m1050 417
c2 -42 -1 -53 -21 -69 -28 -23 -72 -24 -113 -3 l-31 16 74 74 c83 83 87 82 91
-18z m341 -623 c275 -58 471 -337 429 -609 -8 -53 -67 -218 -208 -587 -108
-283 -208 -536 -221 -563 -58 -115 -198 -213 -333 -235 -103 -17 -133 -7 -210
66 -106 100 -169 241 -170 383 -1 31 33 228 77 447 l77 392 43 -40 c25 -23 61
-44 88 -51 33 -9 45 -17 45 -30 0 -11 9 -35 19 -56 59 -115 196 -158 309 -97
57 31 90 71 107 128 10 35 18 42 61 58 157 59 204 247 91 366 -26 27 -61 50
-92 61 -43 16 -50 22 -58 54 -11 48 -71 116 -121 139 -121 55 -274 -13 -308
-136 -10 -36 -16 -42 -64 -61 -30 -12 -54 -18 -54 -13 0 17 42 120 67 165 48
86 181 212 238 227 39 10 121 6 188 -8z m1833 4 c157 -28 315 -147 389 -293
35 -68 46 -117 151 -642 63 -313 114 -586 114 -606 0 -184 -124 -364 -297
-431 -213 -83 -464 9 -569 209 -18 32 -121 291 -230 574 l-198 515 -1 130 c0
111 3 139 23 190 95 254 354 402 618 354z m-1952 -330 c22 -17 26 -28 26 -73
0 -76 25 -106 88 -106 83 0 130 -43 111 -100 -12 -33 -46 -50 -103 -50 -67 0
-87 -22 -95 -104 -5 -50 -12 -72 -26 -82 -28 -21 -63 -17 -90 11 -20 19 -25
34 -25 73 0 74 -26 102 -94 102 -65 0 -106 27 -106 70 0 49 28 71 98 77 79 7
102 31 102 105 0 39 5 54 25 73 30 30 54 31 89 4z m1041 -599 c0 -25 0 -25
-106 -28 -85 -2 -108 0 -119 13 -10 12 -10 18 0 30 11 13 34 15 119 13 106 -3
106 -3 106 -28z"/>
<path d="M2642 4530 c-70 -16 -543 -235 -574 -265 -61 -59 -76 -152 -37 -232
18 -37 55 -68 255 -213 128 -94 249 -177 268 -185 63 -27 149 -12 199 33 18
16 20 16 34 -3 8 -11 30 -52 48 -91 65 -139 132 -188 256 -189 67 0 81 3 124
30 101 62 150 171 126 278 -37 167 -219 420 -390 542 -67 48 -70 51 -70 93 -2
91 -61 172 -145 197 -27 8 -52 15 -55 14 -3 -1 -21 -5 -39 -9z m72 -165 c11
-12 14 -28 9 -64 -9 -79 0 -96 79 -148 148 -97 259 -222 340 -381 58 -112 62
-156 20 -203 -23 -26 -36 -32 -71 -32 -56 0 -77 22 -134 137 -62 124 -157 230
-206 228 -43 -1 -70 -26 -77 -74 -7 -39 -33 -64 -58 -55 -7 3 -113 78 -234
167 -182 132 -222 166 -222 185 0 13 6 27 13 32 37 23 485 221 504 222 12 1
28 -6 37 -14z"/>
<path d="M3715 3743 c-72 -38 -114 -104 -115 -183 0 -45 -1 -45 -88 -110 -143
-108 -273 -275 -348 -450 -37 -85 -39 -184 -7 -246 50 -94 150 -151 251 -141
106 9 181 66 227 172 15 33 36 74 47 92 l19 32 41 -26 c30 -20 56 -28 102 -31
76 -4 86 2 371 210 235 172 255 194 255 286 0 64 -20 111 -64 150 -17 15 -149
80 -293 145 -230 103 -269 117 -315 117 -29 -1 -66 -8 -83 -17z m341 -241
c131 -59 245 -111 252 -115 26 -17 13 -55 -30 -90 -113 -91 -409 -297 -427
-297 -23 0 -51 35 -51 64 0 29 -39 66 -71 66 -55 0 -151 -113 -219 -256 -32
-68 -47 -87 -74 -100 -64 -31 -135 3 -152 73 -9 36 38 147 105 249 69 105 187
223 288 288 39 25 75 55 78 67 4 11 4 42 0 69 -8 58 6 90 39 90 12 0 130 -48
262 -108z"/>
<path d="M4295 2036 c-85 -37 -136 -117 -136 -212 0 -162 164 -270 311 -203
90 40 133 107 134 204 0 94 -52 174 -136 209 -45 19 -132 20 -173 2z m139
-168 c22 -31 20 -64 -4 -88 -21 -21 -65 -27 -75 -9 -9 14 -10 93 -1 107 13 21
64 14 80 -10z"/>
<path d="M3905 1745 c-170 -65 -196 -301 -43 -402 33 -23 55 -28 112 -31 64
-3 76 0 123 27 152 89 146 313 -9 392 -53 27 -132 33 -183 14z m125 -165 c25
-25 26 -72 3 -92 -48 -41 -83 -25 -83 37 0 24 3 50 6 59 9 22 50 20 74 -4z"/>
</g>
</svg>
