<?xml version="1.0" standalone="no"?>
<!DOCTYPE svg PUBLIC "-//W3C//DTD SVG 20010904//EN"
 "http://www.w3.org/TR/2001/REC-SVG-20010904/DTD/svg10.dtd">
<svg version="1.0" xmlns="http://www.w3.org/2000/svg"
 width="512.000000pt" height="512.000000pt" viewBox="0 0 512.000000 512.000000"
 preserveAspectRatio="xMidYMid meet">

<g transform="translate(0.000000,512.000000) scale(0.100000,-0.100000)"
fill="#000000" stroke="none">
<path d="M492 5100 c-103 -27 -166 -64 -248 -145 -78 -77 -134 -175 -153 -267
-8 -37 -11 -521 -9 -1633 l3 -1580 27 -68 c66 -164 190 -281 351 -332 l78 -25
438 0 c241 0 440 -2 443 -5 3 -3 -10 -81 -29 -173 -52 -254 -45 -378 28 -528
100 -204 325 -344 554 -344 139 0 292 56 401 147 99 83 143 159 247 429 l93
239 483 0 484 0 87 -226 c107 -278 127 -315 215 -404 150 -150 363 -214 568
-170 179 38 346 169 425 335 78 164 81 259 18 574 -40 202 -46 222 -71 244
-46 39 -115 8 -115 -53 0 -17 18 -121 40 -230 25 -124 40 -226 40 -272 0 -227
-170 -420 -401 -456 -176 -27 -368 60 -463 212 -42 66 -433 1094 -447 1175
-30 174 31 357 161 485 130 128 326 186 502 150 29 -6 90 -28 135 -50 136 -65
240 -186 286 -334 9 -27 32 -133 52 -235 31 -160 40 -188 61 -208 42 -38 105
-21 118 32 7 28 -64 387 -95 480 -31 94 -96 194 -174 271 -86 84 -155 127
-272 169 l-88 31 -552 3 -552 3 -3 1162 -3 1162 -27 73 c-35 97 -76 159 -154
232 -67 62 -108 87 -204 124 -55 21 -60 21 -1130 23 -1033 2 -1078 1 -1148
-17z m2161 -140 c134 -20 248 -103 309 -228 l33 -67 3 -1157 2 -1158 -74 0
-75 0 -3 1088 -3 1087 -23 57 c-32 80 -99 150 -180 190 l-67 33 -186 3 c-183
4 -186 3 -213 -20 -21 -18 -29 -36 -36 -86 -11 -79 -39 -125 -98 -160 l-47
-27 -357 -3 c-236 -2 -371 1 -398 8 -78 21 -149 110 -150 187 0 46 -18 80 -50
93 -36 15 -360 8 -412 -9 -53 -17 -128 -71 -165 -120 -38 -49 -40 -45 -14 38
25 80 70 149 138 211 l55 50 971 0 c581 0 999 -4 1040 -10z m-1704 -345 c26
-96 122 -199 218 -235 54 -20 70 -21 467 -18 l411 3 45 24 c25 13 59 35 77 48
41 32 98 117 114 171 l12 42 121 0 c96 0 129 -4 161 -19 50 -22 91 -69 105
-119 6 -24 10 -401 10 -1104 l0 -1068 -258 0 c-225 0 -269 -3 -336 -20 -196
-50 -372 -192 -460 -370 -45 -92 -53 -121 -106 -382 l-11 -58 -393 0 c-452 0
-471 3 -530 71 -22 26 -39 59 -45 91 -8 33 -11 414 -11 1155 l0 1107 -22 23
c-14 15 -33 23 -55 23 l-33 0 0 75 0 75 33 0 c68 0 71 8 77 203 5 172 6 175
35 222 48 78 91 95 241 95 l123 0 10 -35z m1427 -2436 c85 -15 209 -78 272
-138 118 -114 177 -251 176 -411 0 -57 -7 -115 -16 -145 -31 -99 -400 -1051
-425 -1098 -38 -68 -124 -150 -197 -186 -309 -152 -676 71 -676 412 0 51 32
232 110 627 104 521 113 560 152 639 109 225 352 346 604 300z m1244 -57
c-120 -126 -187 -277 -197 -447 -8 -129 13 -216 112 -476 47 -121 85 -222 85
-225 0 -2 -189 -4 -420 -4 -231 0 -420 3 -420 7 0 3 36 99 79 212 44 113 87
233 97 266 25 82 25 265 0 355 -35 127 -122 271 -210 346 l-40 34 490 0 489 0
-65 -68z m-3032 -729 l57 -28 418 -3 c386 -3 417 -4 417 -20 -1 -9 -6 -44 -13
-77 l-13 -60 -408 -3 -407 -2 -44 35 c-57 47 -111 127 -141 209 -13 37 -24 72
-24 77 0 6 23 -14 51 -45 30 -33 73 -66 107 -83z"/>
<path d="M1263 4798 c-28 -14 -46 -58 -37 -92 14 -55 18 -56 392 -56 l343 0
24 25 c30 29 32 74 6 106 l-19 24 -344 2 c-228 1 -350 -2 -365 -9z"/>
<path d="M1690 3692 c-19 -15 -44 -108 -161 -588 -76 -313 -139 -583 -139
-600 0 -37 35 -74 72 -74 62 0 60 -5 209 605 76 314 138 584 139 601 0 61 -72
95 -120 56z"/>
<path d="M1008 3282 c-141 -141 -188 -194 -188 -212 0 -37 365 -400 402 -400
35 0 67 28 74 68 6 32 1 38 -142 182 l-148 150 148 150 c143 144 148 150 142
182 -3 18 -16 41 -27 51 -47 38 -62 28 -261 -171z"/>
<path d="M1964 3447 c-19 -17 -27 -33 -27 -56 0 -28 18 -51 144 -177 l144
-144 -144 -144 c-126 -126 -144 -149 -144 -177 0 -23 8 -39 27 -56 53 -45 64
-39 263 160 165 165 183 186 183 217 0 31 -18 52 -183 217 -199 199 -210 205
-263 160z"/>
<path d="M2122 1989 c-53 -27 -96 -78 -112 -135 -10 -35 -18 -46 -39 -51 -146
-35 -218 -187 -150 -318 28 -55 87 -103 139 -114 27 -5 35 -14 50 -53 26 -70
55 -104 112 -132 91 -45 183 -31 254 39 30 30 48 59 56 90 10 36 18 47 38 52
128 30 204 157 169 281 -17 63 -87 133 -150 151 -42 12 -46 16 -57 56 -14 55
-64 112 -117 136 -55 26 -139 24 -193 -2z m143 -154 c20 -19 25 -34 25 -74 0
-74 28 -103 106 -109 68 -5 94 -23 94 -65 0 -47 -25 -67 -82 -67 -86 0 -117
-28 -118 -108 0 -43 -5 -58 -25 -77 -45 -46 -75 -26 -75 48 0 39 -4 50 -18 54
-10 2 -23 17 -29 34 -13 34 -46 49 -108 49 -40 0 -44 2 -50 31 -4 17 -4 46 -1
65 7 32 9 34 47 34 57 0 107 23 114 53 4 14 15 27 26 30 15 4 19 14 19 50 0
25 3 52 6 61 9 24 41 19 69 -9z"/>
<path d="M3030 1401 c-104 -55 -133 -192 -58 -277 52 -59 71 -64 230 -64 123
0 147 3 174 19 126 77 122 256 -7 321 -55 29 -287 29 -339 1z m275 -161 c0
-25 -2 -25 -87 -28 l-88 -3 0 31 0 31 88 -3 c85 -3 87 -3 87 -28z"/>
<path d="M4230 1994 c-178 -77 -176 -334 2 -408 104 -44 228 2 280 103 44 84
35 165 -27 247 -50 66 -173 94 -255 58z m131 -152 c45 -37 16 -122 -42 -122
-23 0 -39 29 -39 70 0 66 35 88 81 52z"/>
<path d="M3861 1710 c-55 -13 -113 -61 -140 -115 -45 -86 -27 -199 41 -262 33
-31 107 -63 147 -63 122 -1 231 105 231 224 0 140 -142 251 -279 216z m112
-182 c17 -23 18 -31 8 -57 -13 -30 -59 -55 -79 -42 -16 10 -25 57 -18 97 7 32
10 35 38 32 20 -2 38 -13 51 -30z"/>
</g>
</svg>
