<?xml version="1.0" standalone="no"?>
<!DOCTYPE svg PUBLIC "-//W3C//DTD SVG 20010904//EN"
 "http://www.w3.org/TR/2001/REC-SVG-20010904/DTD/svg10.dtd">
<svg version="1.0" xmlns="http://www.w3.org/2000/svg"
 width="512.000000pt" height="512.000000pt" viewBox="0 0 512.000000 512.000000"
 preserveAspectRatio="xMidYMid meet">

<g transform="translate(0.000000,512.000000) scale(0.100000,-0.100000)"
fill="#000000" stroke="none">
<path d="M1241 4844 c-77 -21 -146 -61 -205 -120 -101 -101 -136 -201 -136
-386 l0 -118 -109 0 c-136 0 -199 -12 -281 -52 -120 -58 -215 -185 -240 -317
-14 -73 -14 -2439 0 -2512 33 -177 184 -325 364 -358 39 -7 302 -11 768 -11
427 0 708 -4 708 -9 0 -5 -23 -68 -51 -140 l-51 -131 -344 0 c-216 0 -361 -4
-388 -11 -162 -41 -210 -254 -83 -366 20 -18 53 -37 74 -42 53 -15 2533 -15
2586 0 82 22 146 111 147 202 0 85 -39 149 -115 190 -39 21 -53 22 -407 25
l-367 3 -50 130 c-28 72 -51 135 -51 140 0 5 281 9 708 9 466 0 729 4 768 11
130 24 255 113 317 226 58 108 57 68 57 1384 0 767 -4 1226 -10 1260 -25 132
-120 259 -240 317 -82 40 -145 52 -280 52 l-108 0 -4 143 c-4 116 -9 152 -27
200 -45 116 -150 221 -269 269 l-57 23 -1285 2 c-1100 2 -1293 0 -1339 -13z
m2602 -119 c125 -32 218 -128 245 -252 l10 -43 -1539 0 c-846 0 -1539 2 -1539
4 0 2 9 34 21 72 18 57 31 77 83 130 51 51 74 66 127 83 63 20 85 20 1299 20
1063 1 1244 -1 1293 -14z m-2943 -685 l0 -60 -117 0 c-131 0 -176 -14 -225
-66 -61 -65 -58 -11 -58 -1086 0 -935 1 -985 19 -1023 23 -49 64 -89 113 -109
33 -14 241 -16 1928 -16 1687 0 1895 2 1928 16 49 20 90 60 113 109 18 38 19
88 19 1023 0 1075 3 1021 -58 1086 -49 52 -94 66 -224 66 l-118 0 0 61 0 61
133 -4 c116 -3 139 -7 188 -30 72 -33 134 -94 168 -167 l26 -56 3 -1195 c2
-810 -1 -1217 -8 -1264 -19 -126 -96 -224 -206 -266 -54 -20 -69 -20 -1964
-20 -1895 0 -1910 0 -1964 20 -110 42 -187 140 -206 266 -7 47 -10 454 -8
1264 l3 1195 26 56 c44 94 130 165 226 188 21 5 89 9 151 10 l112 1 0 -60z
m2544 -77 c13 -56 30 -84 57 -98 39 -21 71 -19 124 7 l45 22 32 -32 32 -32
-22 -45 c-44 -90 -18 -153 73 -177 l46 -12 -3 -50 c-3 -50 -3 -50 -48 -63 -87
-25 -111 -88 -68 -178 l22 -45 -32 -33 -33 -32 -39 23 c-85 48 -157 20 -182
-73 l-12 -46 -50 3 c-50 3 -50 3 -63 48 -24 86 -90 112 -175 69 l-41 -21 -34
35 -35 34 21 41 c44 86 18 151 -69 173 l-50 13 0 51 0 51 46 12 c91 25 116 86
72 177 l-22 45 32 32 32 32 45 -22 c53 -26 85 -28 124 -7 27 13 61 75 61 110
0 11 13 15 54 15 51 0 54 -2 60 -27z m-2544 -495 c0 -296 4 -405 14 -443 45
-168 180 -299 346 -334 41 -9 379 -11 1335 -9 l1280 3 78 37 c128 61 209 158
251 297 14 46 16 115 16 448 l0 393 111 0 c109 0 111 0 140 -29 l29 -29 0
-972 0 -972 -29 -29 -29 -29 -1882 0 -1882 0 -29 29 -29 29 0 972 0 972 29 29
c29 29 31 29 140 29 l111 0 0 -392z m2952 -2937 c30 -34 34 -56 17 -94 -25
-54 36 -52 -1321 -52 l-1260 0 -24 28 c-26 30 -31 75 -13 108 27 52 -22 50
1324 45 l1249 -4 28 -31z"/>
<path d="M1273 4614 c-15 -24 -15 -29 -2 -53 29 -51 109 -33 109 24 0 56 -76
76 -107 29z"/>
<path d="M1476 4624 c-21 -20 -20 -58 0 -79 25 -24 75 -16 93 16 13 24 13 29
-2 53 -20 30 -66 35 -91 10z"/>
<path d="M1663 4614 c-15 -24 -15 -29 -2 -53 29 -51 109 -33 109 24 0 56 -76
76 -107 29z"/>
<path d="M2972 4628 c-7 -7 -12 -26 -12 -43 0 -17 5 -36 12 -43 16 -16 190
-16 206 0 17 17 15 64 -4 82 -19 20 -183 23 -202 4z"/>
<path d="M3256 4624 c-20 -19 -20 -54 -2 -80 14 -18 28 -19 269 -19 237 0 256
1 276 19 26 23 27 57 3 79 -16 15 -50 17 -275 17 -219 0 -258 -2 -271 -16z"/>
<path d="M2475 1563 c-81 -42 -121 -115 -113 -208 8 -99 94 -175 198 -175 104
0 190 76 198 174 8 93 -31 167 -109 206 -47 24 -132 26 -174 3z m140 -128 c31
-30 32 -73 5 -103 -38 -40 -93 -37 -127 7 -35 45 7 121 67 121 19 0 40 -9 55
-25z"/>
<path d="M3285 3772 c-45 -21 -99 -73 -122 -116 -21 -41 -28 -128 -13 -181 16
-56 81 -132 135 -156 53 -25 147 -24 201 0 22 10 57 35 77 56 107 110 84 299
-47 380 -63 39 -168 46 -231 17z m165 -119 c98 -58 66 -215 -47 -230 -81 -11
-148 54 -140 135 10 91 109 141 187 95z"/>
<path d="M950 2523 c-49 -18 -65 -67 -32 -96 16 -15 47 -17 225 -17 l207 0 16
25 c21 32 7 71 -32 85 -26 10 -357 13 -384 3z"/>
<path d="M3782 2520 c-35 -15 -48 -54 -28 -85 l16 -25 209 0 c189 0 209 2 224
18 23 25 21 55 -4 78 -19 17 -40 19 -208 21 -102 1 -196 -2 -209 -7z"/>
<path d="M950 2293 c-49 -18 -65 -67 -32 -96 16 -15 54 -17 325 -17 l307 0 16
25 c21 32 7 71 -32 85 -26 10 -557 13 -584 3z"/>
<path d="M3582 2290 c-35 -15 -48 -54 -28 -85 l16 -25 310 0 c308 0 309 0 324
22 22 30 20 51 -5 74 -20 18 -42 19 -308 21 -159 1 -296 -2 -309 -7z"/>
<path d="M926 2049 c-30 -23 -33 -45 -10 -77 l15 -22 574 0 574 0 15 22 c22
31 20 45 -9 73 l-24 25 -554 0 c-546 0 -555 0 -581 -21z"/>
<path d="M3035 2045 c-29 -28 -31 -42 -9 -73 l15 -22 574 0 574 0 15 22 c23
32 20 54 -10 77 -26 21 -35 21 -581 21 l-554 0 -24 -25z"/>
</g>
</svg>
